<svg xmlns="http://www.w3.org/2000/svg" xmlns:xlink="http://www.w3.org/1999/xlink" viewBox="0 0 311.74 335"><defs><style>.cls-1{isolation:isolate;}.cls-2{opacity:0.93;}.cls-3{fill:url(#Degradado_sin_nombre_6);}.cls-4{opacity:0.74;}.cls-15,.cls-5,.cls-7{mix-blend-mode:multiply;}.cls-6{fill:#a0262a;}.cls-7{opacity:0.76;}.cls-8{fill:url(#Degradado_sin_nombre_6-2);}.cls-9{font-size:39.11px;font-family:Antonio-Regular, Antonio;}.cls-10,.cls-11,.cls-9{fill:#fff;}.cls-10{font-size:20.21px;}.cls-10,.cls-11{font-family:Antonio-Light, Antonio;}.cls-11{font-size:13.39px;}.cls-12{opacity:0.11;fill:url(#Degradado_sin_nombre_3);}.cls-13{fill:#bf0411;}.cls-14{fill:#c03231;}.cls-15{opacity:0.69;}</style><linearGradient id="Degradado_sin_nombre_6" x1="9.26" y1="167.5" x2="302.45" y2="167.5" gradientUnits="userSpaceOnUse"><stop offset="0" stop-color="#2b2b2b"/><stop offset="0.31" stop-color="#2e2e2e"/><stop offset="0.56" stop-color="#383839"/><stop offset="0.8" stop-color="#48484a"/><stop offset="1" stop-color="#5b5b5f"/></linearGradient><linearGradient id="Degradado_sin_nombre_6-2" x1="29.61" y1="167.5" x2="282.1" y2="167.5" xlink:href="#Degradado_sin_nombre_6"/><linearGradient id="Degradado_sin_nombre_3" x1="11.32" y1="154.37" x2="264.05" y2="154.37" gradientUnits="userSpaceOnUse"><stop offset="0.03" stop-color="#aeadb3"/><stop offset="1" stop-color="#5b5b5f"/></linearGradient></defs><title>Recurso 1</title><g class="cls-1"><g id="Capa_2" data-name="Capa 2"><g id="OBJECTS"><g class="cls-2"><path class="cls-3" d="M302.45,167.5A146.6,146.6,0,1,1,155.85,20.91,146.61,146.61,0,0,1,302.45,167.5Z"/></g><g class="cls-4"><g class="cls-5"><path class="cls-6" d="M228.22,64.72a124.91,124.91,0,0,0-72.37-22.9,126.24,126.24,0,0,0-28.54,3.25L117.85,4.33a168.66,168.66,0,0,1,38-4.33,166.45,166.45,0,0,1,96.47,30.56Z"/></g></g><g class="cls-7"><path class="cls-6" d="M155.85,335a168.13,168.13,0,0,1-76.21-18.3l19-37.23a125.93,125.93,0,0,0,114.32,0l19.05,37.23A168.07,168.07,0,0,1,155.85,335Z"/></g><path class="cls-6" d="M266.36,142.22a113.49,113.49,0,0,0-77.27-83.11l13.6-44.43a160.1,160.1,0,0,1,109,117.23Z"/><path class="cls-6" d="M117.09,320.66A157.08,157.08,0,0,1,12.36,235.73L54.23,215.6a110.78,110.78,0,0,0,73.85,59.91Z"/><path class="cls-8" d="M279.53,142.06A126.26,126.26,0,1,1,155.85,41.26m0,0a126.28,126.28,0,0,1,123.68,100.8"/><text class="cls-9" transform="translate(100.93 187.65)">MODERN</text><text class="cls-10" transform="translate(126.32 146.39)">ABSTRACT</text><text class="cls-11" transform="translate(140.2 207.8)">BANNER</text><path class="cls-12" d="M82.47,286.69,264.05,49.92S114.45-44,19.71,113.05C19.71,113.05-22.52,205.76,82.47,286.69Z"/><path class="cls-13" d="M103.64,291.1A134,134,0,0,1,21.71,167.5h15.8a118.19,118.19,0,0,0,72.28,109.05Z"/><path class="cls-14" d="M155.85,301.65c-74,0-134.14-60.18-134.14-134.15h15.8A118.48,118.48,0,0,0,155.85,285.85ZM290,167.5H274.2A118.48,118.48,0,0,0,155.85,49.16V33.36C229.82,33.36,290,93.53,290,167.5Z"/><g class="cls-15"><path class="cls-14" d="M275.14,267.87l-14.22-12a137.55,137.55,0,0,0,23.63-136.35L302,113.05a156.1,156.1,0,0,1-26.82,154.82Z"/></g><g class="cls-15"><path class="cls-14" d="M38.33,110.42,15.51,100A159.38,159.38,0,0,1,146.64,7.6l2.14,25A134.27,134.27,0,0,0,38.33,110.42Z"/></g><g class="cls-15"><path class="cls-14" d="M90.5,302.2A156.13,156.13,0,0,1,0,173.76l18.52-1.59A137.48,137.48,0,0,0,98.23,285.29Z"/></g></g></g></g></svg>